<?xml version="1.0" encoding="UTF-8"?>
<svg width="164px" height="47px" viewBox="0 0 164 47" version="1.1" xmlns="http://www.w3.org/2000/svg" xmlns:xlink="http://www.w3.org/1999/xlink">
    <!-- Generator: Sketch 51.1 (57501) - http://www.bohemiancoding.com/sketch -->
    <title>Group</title>
    <desc>Created with Sketch.</desc>
    <defs></defs>
    <g id="Page-1" stroke="none" stroke-width="1" fill="none" fill-rule="evenodd">
        <g id="Group" fill-rule="nonzero">
            <path d="M38.91,9.45 C31.81,-4.65 9.79,-1.55 3.26,9.45 C-4.17,22 2.86,47 7,47 C11.88,47 7.2,31.74 13.64,27.27 C20.51,22.5 23.78,32.53 33.34,29.37 C39.41,27.37 42.77,17.08 38.94,9.49 M10,17 C8.89087242,17.0040479 7.888704,16.339041 7.46145145,15.3155002 C7.0341989,14.2919595 7.26614689,13.1118002 8.04898867,12.3260909 C8.83183044,11.5403816 10.0111338,11.3041201 11.0362298,11.7276274 C12.0613259,12.1511348 12.7299926,13.150865 12.73,14.26 C12.7300101,15.7693636 11.5093535,16.9944914 10,17" id="Shape" fill="#00FF4B"></path>
            <rect id="Rectangle-path" fill="#FFFFFF" x="84.63" y="37.84" width="1" height="6.86"></rect>
            <path d="M90.5,44.7 L90.5,41.59 C90.5,40.86 90.2,40.42 89.43,40.42 C88.956935,40.4398947 88.5406724,40.7383471 88.37,41.18 C88.2259638,41.5801764 88.1647254,42.0054429 88.19,42.43 L88.19,44.7 L87.37,44.7 L87.37,39.81 L88.09,39.81 L88.15,40.54 C88.4477436,40.0030763 89.0160889,39.6728216 89.63,39.68 C90.110529,39.6384132 90.583735,39.8185941 90.9149108,40.1692509 C91.2460866,40.5199076 91.3989554,41.0026294 91.33,41.48 L91.33,44.7 L90.5,44.7 Z" id="Shape" fill="#FFFFFF"></path>
            <polygon id="Shape" fill="#FFFFFF" points="94.84 44.7 93.95 44.7 92.15 39.8 93.01 39.8 94.42 43.73 95.78 39.8 96.61 39.8"></polygon>
            <path d="M100.38,40.82 C100.142062,40.5142521 99.7661688,40.3488589 99.38,40.38 C99.0067464,40.3820979 98.6507607,40.5375119 98.3954732,40.8098186 C98.1401856,41.0821253 98.0080377,41.4473872 98.03,41.82 L100.64,41.82 C100.649442,41.4631712 100.544302,41.1127054 100.34,40.82 L100.38,40.82 Z M101.48,42.52 L98.05,42.52 C98.0484233,42.9759991 98.2199754,43.4156014 98.53,43.75 C98.7697448,43.984476 99.0948317,44.1108987 99.43,44.1 C99.7637717,44.1182652 100.091123,44.0031528 100.34,43.78 C100.48381,43.6335443 100.584196,43.4500815 100.63,43.25 L101.43,43.25 C101.353327,43.7404923 101.078553,44.1779613 100.67,44.46 C100.301212,44.6996555 99.8697904,44.8249068 99.43,44.82 C98.8053933,44.8299526 98.2084831,44.5626247 97.8,44.09 C97.3900985,43.5733296 97.1742534,42.9293327 97.19,42.27 C97.1707414,41.7217667 97.3021728,41.1787475 97.57,40.7 C97.963322,40.059666 98.668828,39.6783114 99.42,39.7 C99.9832245,39.6908004 100.524215,39.9195414 100.91,40.33 C101.323003,40.8064976 101.543999,41.4195832 101.53,42.05 L101.48,42.52 Z" id="Shape" fill="#FFFFFF"></path>
            <path d="M106.15,44.27 C105.712458,44.6612561 105.135628,44.8595415 104.55,44.82 C103.970521,44.8586572 103.400216,44.6601334 102.97,44.27 C102.666685,43.9758628 102.493813,43.5724954 102.49,43.15 L103.31,43.15 C103.32222,43.4506061 103.469131,43.7297357 103.71,43.91 C103.972722,44.0752901 104.279999,44.1556012 104.59,44.14 C104.912755,44.1615801 105.232423,44.0656799 105.49,43.87 C105.643584,43.7326344 105.730955,43.5360495 105.73,43.33 C105.73,42.97 105.47,42.71 104.97,42.64 L103.87,42.49 C103.180321,42.4523053 102.647216,41.8703324 102.67,41.18 C102.665756,40.8068692 102.809595,40.4472712 103.07,40.18 C103.458842,39.8152676 103.977213,39.6208786 104.51,39.64 C105.097124,39.5993424 105.670963,39.8274063 106.07,40.26 C106.29794,40.5198418 106.422494,40.8543585 106.42,41.2 L105.6,41.2 C105.588815,40.9681688 105.488498,40.749622 105.32,40.59 C105.09316,40.4029827 104.803308,40.3099439 104.51,40.33 C104.315734,40.3185667 104.121292,40.349268 103.94,40.42 C103.658259,40.5207103 103.464887,40.7811711 103.45,41.08 C103.45,41.49 103.7,41.66 104.11,41.72 L105.29,41.88 C105.816025,41.9404436 106.262943,42.292478 106.444911,42.7897136 C106.626878,43.2869492 106.512755,43.8443008 106.15,44.23" id="Shape" fill="#FFFFFF"></path>
            <path d="M109.45,44.77 C109.084349,44.8154744 108.718078,44.6904421 108.456558,44.430874 C108.195038,44.1713058 108.067266,43.8059809 108.11,43.44 L108.11,40.51 L107.11,40.51 L107.11,39.81 L108.11,39.81 L108.11,38.56 L108.93,38.36 L108.93,39.81 L110.38,39.81 L110.38,40.51 L108.93,40.51 L108.93,43.34 C108.93,43.82 109.13,44.01 109.59,44.01 C109.87182,44.00053 110.15257,43.9704497 110.43,43.92 L110.43,44.63 C110.105461,44.7260341 109.768434,44.7732179 109.43,44.77" id="Shape" fill="#FFFFFF"></path>
            <path d="M111.62,39.81 L112.46,39.81 L112.46,44.7 L111.62,44.7 L111.62,39.81 Z M111.56,37.72 L112.56,37.72 L112.56,38.72 L111.56,38.72 L111.56,37.72 Z" id="Shape" fill="#FFFFFF"></path>
            <path d="M117.39,44.7 L117.39,41.59 C117.39,40.86 117.09,40.42 116.32,40.42 C115.844989,40.4410965 115.426363,40.7384384 115.25,41.18 C115.113966,41.5819726 115.056258,42.0062978 115.08,42.43 L115.08,44.7 L114.26,44.7 L114.26,39.81 L115,39.81 L115.07,40.54 C115.366104,40.0014721 115.935507,39.6706027 116.55,39.68 C117.028862,39.6416571 117.499158,39.8232582 117.827979,40.1734811 C118.156799,40.523704 118.308423,41.0045031 118.24,41.48 L118.24,44.7 L117.39,44.7 Z" id="Shape" fill="#FFFFFF"></path>
            <path d="M121.62,40.35 C121.023532,40.35 120.54,40.8335325 120.54,41.43 C120.54,42.0264675 121.023532,42.51 121.62,42.51 C121.914975,42.5240577 122.202443,42.4144263 122.413148,42.2075176 C122.623853,42.0006088 122.738693,41.7151819 122.73,41.42 C122.752784,41.1226369 122.641655,40.8306232 122.426938,40.6236438 C122.212221,40.4166643 121.916327,40.3163226 121.62,40.35 M121.75,44.65 L120.86,44.65 C120.509979,44.7477381 120.260813,45.057186 120.24,45.42 C120.233228,45.6152464 120.309541,45.8042121 120.45,45.94 C120.828022,46.2060905 121.290832,46.323573 121.75,46.27 C122.219562,46.31713 122.690665,46.1966978 123.08,45.93 C123.218895,45.7972942 123.29518,45.6120311 123.29,45.42 C123.29,44.59 122.37,44.65 121.75,44.65 M123.67,46.41 C123.097596,46.8424686 122.384391,47.045732 121.67,46.98 C121.002725,47.0373188 120.339311,46.8329153 119.82,46.41 C119.585022,46.1829002 119.457757,45.8665563 119.47,45.54 C119.472407,45.0770382 119.740921,44.6567552 120.16,44.46 C119.820305,44.3232231 119.595691,43.9961534 119.59,43.63 C119.588641,43.2115275 119.847993,42.8364639 120.24,42.69 C119.88526,42.3626656 119.682433,41.9026825 119.68,41.42 C119.664108,40.9771117 119.830351,40.547049 120.14,40.23 C120.524499,39.850942 121.050833,39.6512981 121.59,39.68 C121.986375,39.6690866 122.377866,39.7695578 122.72,39.97 C122.859395,39.5406615 123.269139,39.257938 123.72,39.28 L123.96,39.28 L123.96,40 L123.78,40 C123.497389,39.9734016 123.239578,40.1624633 123.18,40.44 C123.394043,40.7289149 123.506549,41.0804959 123.5,41.44 C123.504517,41.873084 123.343563,42.2915621 123.05,42.61 C122.669791,43.0048981 122.137549,43.2163366 121.59,43.19 C121.311059,43.196545 121.033239,43.1525004 120.77,43.06 C120.559678,43.1085109 120.398446,43.2776071 120.36,43.49 C120.36,43.92 120.78,43.96 121.09,43.97 L122.09,43.97 C122.674009,43.9262011 123.251945,44.1128639 123.7,44.49 C123.970232,44.7500954 124.112789,45.1156266 124.09,45.49 C124.097188,45.8676283 123.944675,46.2307542 123.67,46.49" id="Shape" fill="#FFFFFF"></path>
            <path d="M128.72,44.77 C128.354349,44.8154744 127.988078,44.6904421 127.726558,44.430874 C127.465038,44.1713058 127.337266,43.8059809 127.38,43.44 L127.38,40.51 L126.43,40.51 L126.43,39.81 L127.38,39.81 L127.38,38.56 L128.2,38.36 L128.2,39.81 L129.65,39.81 L129.65,40.51 L128.2,40.51 L128.2,43.34 C128.2,43.82 128.4,44.01 128.86,44.01 C129.141767,43.9997739 129.422462,43.9696994 129.7,43.92 L129.7,44.63 C129.375461,44.7260341 129.038434,44.7732179 128.7,44.77" id="Shape" fill="#FFFFFF"></path>
            <path d="M133.47,40.73 C133.23292,40.5051502 132.916673,40.3829638 132.59,40.39 C132.26255,40.3784409 131.944614,40.5012798 131.71,40.73 C131.113928,41.6411744 131.113928,42.8188256 131.71,43.73 C131.943597,43.9613826 132.261297,44.0877404 132.59,44.08 C132.918087,44.0843565 133.234526,43.9585 133.47,43.73 C134.053378,42.8150824 134.053378,41.6449176 133.47,40.73 M134.07,44.25 C133.223146,45.0326786 131.916854,45.0326786 131.07,44.25 C130.137729,43.0796284 130.137729,41.4203716 131.07,40.25 C131.916854,39.4673214 133.223146,39.4673214 134.07,40.25 C134.991281,41.424191 134.991281,43.075809 134.07,44.25" id="Shape" fill="#FFFFFF"></path>
            <path d="M137.89,40.35 C137.293532,40.35 136.81,40.8335325 136.81,41.43 C136.81,42.0264675 137.293532,42.51 137.89,42.51 C138.184975,42.5240577 138.472443,42.4144263 138.683148,42.2075176 C138.893853,42.0006088 139.008693,41.7151819 139,41.42 C139.022784,41.1226369 138.911655,40.8306232 138.696938,40.6236438 C138.482221,40.4166643 138.186327,40.3163226 137.89,40.35 M138.02,44.65 L137.13,44.65 C136.779979,44.7477381 136.530813,45.057186 136.51,45.42 C136.503228,45.6152464 136.579541,45.8042121 136.72,45.94 C137.099194,46.2035323 137.561023,46.3207657 138.02,46.27 C138.492882,46.3195524 138.967949,46.199013 139.36,45.93 C139.491261,45.7929932 139.563136,45.6097118 139.56,45.42 C139.56,44.59 138.64,44.65 138.02,44.65 M140,46.41 C139.425877,46.8390081 138.714027,47.0418852 138,46.98 C137.332953,47.0352091 136.67031,46.8310435 136.15,46.41 C135.915022,46.1829002 135.787757,45.8665563 135.8,45.54 C135.802407,45.0770382 136.070921,44.6567552 136.49,44.46 C136.150305,44.3232231 135.925691,43.9961534 135.92,43.63 C135.918641,43.2115275 136.177993,42.8364639 136.57,42.69 C136.21526,42.3626656 136.012433,41.9026825 136.01,41.42 C135.996755,40.9756481 136.166694,40.5453777 136.48,40.23 C136.8624,39.8476824 137.390242,39.6474664 137.93,39.68 C138.308934,39.6886251 138.678549,39.7991641 139,40 C139.139395,39.5706615 139.549139,39.287938 140,39.31 L140.24,39.31 L140.24,40 L140.06,40 C139.777389,39.9734016 139.519578,40.1624633 139.46,40.44 C139.674043,40.7289149 139.786549,41.0804959 139.78,41.44 C139.783318,41.8710375 139.626526,42.2879637 139.34,42.61 C138.957596,43.0016168 138.426894,43.2124438 137.88,43.19 C137.597742,43.1973149 137.316505,43.1532657 137.05,43.06 C136.839678,43.1085109 136.678446,43.2776071 136.64,43.49 C136.64,43.92 137.06,43.96 137.37,43.97 L138.37,43.97 C138.954009,43.9262011 139.531945,44.1128639 139.98,44.49 C140.250232,44.7500954 140.392789,45.1156266 140.37,45.49 C140.376146,45.8654344 140.22793,46.2269369 139.96,46.49" id="Shape" fill="#FFFFFF"></path>
            <path d="M144.16,40.82 C143.920924,40.515717 143.545858,40.3506883 143.16,40.38 C142.787544,40.38193 142.432434,40.5376535 142.178703,40.8103204 C141.924971,41.0829874 141.795164,41.4483682 141.82,41.82 L144.43,41.82 C144.434718,41.4638168 144.330003,41.1147669 144.13,40.82 L144.16,40.82 Z M145.26,42.52 L141.8,42.52 C141.794699,42.9748238 141.962747,43.4146073 142.27,43.75 C142.511615,43.9815585 142.835424,44.1074842 143.17,44.1 C143.504251,44.1216887 143.832891,44.006123 144.08,43.78 C144.228998,43.6374577 144.330288,43.4523405 144.37,43.25 L145.17,43.25 C145.100364,43.7405243 144.828328,44.179409 144.42,44.46 C144.047619,44.6999103 143.612943,44.8250968 143.17,44.82 C142.548585,44.8283646 141.95538,44.5610563 141.55,44.09 C141.135461,43.5758572 140.919029,42.9301104 140.94,42.27 C140.920741,41.7217667 141.052173,41.1787475 141.32,40.7 C141.707049,40.0581199 142.410852,39.6756183 143.16,39.7 C143.723224,39.6908004 144.264215,39.9195414 144.65,40.33 C145.066415,40.7867065 145.298099,41.3819559 145.3,42 L145.26,42.52 Z" id="Shape" fill="#FFFFFF"></path>
            <path d="M148.19,44.77 C147.824349,44.8154744 147.458078,44.6904421 147.196558,44.430874 C146.935038,44.1713058 146.807266,43.8059809 146.85,43.44 L146.85,40.51 L145.9,40.51 L145.9,39.81 L146.85,39.81 L146.85,38.56 L147.67,38.36 L147.67,39.81 L149.12,39.81 L149.12,40.51 L147.67,40.51 L147.67,43.34 C147.67,43.82 147.87,44.01 148.33,44.01 C148.61182,44.00053 148.89257,43.9704497 149.17,43.92 L149.17,44.63 C148.845461,44.7260341 148.508434,44.7732179 148.17,44.77" id="Shape" fill="#FFFFFF"></path>
            <path d="M153.49,44.7 L153.49,41.59 C153.49,40.86 153.19,40.42 152.42,40.42 C151.944989,40.4410965 151.526363,40.7384384 151.35,41.18 C151.213966,41.5819726 151.156258,42.0062978 151.18,42.43 L151.18,44.7 L150.36,44.7 L150.36,37.7 L151.18,37.7 L151.18,40.43 C151.491353,39.9432217 152.03222,39.6519852 152.61,39.66 C153.089499,39.6223119 153.560288,39.8037023 153.890539,40.1533799 C154.22079,40.5030575 154.375004,40.9834346 154.31,41.46 L154.31,44.7 L153.49,44.7 Z" id="Shape" fill="#FFFFFF"></path>
            <path d="M158.84,40.82 C158.598727,40.5185622 158.225244,40.3542298 157.84,40.38 C157.467544,40.38193 157.112434,40.5376535 156.858703,40.8103204 C156.604971,41.0829874 156.475164,41.4483682 156.5,41.82 L159.11,41.82 C159.114718,41.4638168 159.010003,41.1147669 158.81,40.82 L158.84,40.82 Z M159.94,42.52 L156.48,42.52 C156.474699,42.9748238 156.642747,43.4146073 156.95,43.75 C157.189745,43.984476 157.514832,44.1108987 157.85,44.1 C158.18409,44.120526 158.512289,44.0051155 158.76,43.78 C158.90381,43.6335443 159.004196,43.4500815 159.05,43.25 L159.85,43.25 C159.772473,43.7376249 159.502221,44.1736316 159.1,44.46 C158.726892,44.6983064 158.292706,44.8233521 157.85,44.82 C157.225393,44.8299526 156.628483,44.5626247 156.22,44.09 C155.812922,43.5723787 155.600565,42.9282299 155.62,42.27 C155.600741,41.7217667 155.732173,41.1787475 156,40.7 C156.393322,40.059666 157.098828,39.6783114 157.85,39.7 C158.413224,39.6908004 158.954215,39.9195414 159.34,40.33 C159.760052,40.7852022 159.995367,41.3806203 160,42 L159.94,42.52 Z" id="Shape" fill="#FFFFFF"></path>
            <path d="M163.54,40.57 C163.193622,40.5722415 162.862462,40.7126246 162.62,40.96 C162.272837,41.4016928 162.111422,41.9612664 162.17,42.52 L162.17,44.7 L161.36,44.7 L161.36,39.81 L162.08,39.81 L162.15,40.67 C162.405641,40.0998239 162.986063,39.7460046 163.61,39.78 C163.739811,39.7700833 163.870189,39.7700833 164,39.78 L164,40.58 C163.847026,40.5651473 163.692974,40.5651473 163.54,40.58" id="Shape" fill="#FFFFFF"></path>
            <path d="M42,23.45 C43.37,23.45 44.28,22.83 44.28,21.69 L44.28,21.64 C44.28,20.47 43.44,19.88 42.02,19.88 L40.53,19.88 L40.53,23.45 L42,23.45 Z M35.2,15.6 L42.41,15.6 C46.66,15.6 49.57,17.5 49.57,21.3 C49.57,25.17 46.62,27.23 42.29,27.23 L40.53,27.23 L40.53,31.58 L35.17,31.58 L35.2,15.6 Z" id="Shape" fill="#FFFFFF"></path>
            <path d="M50.55,19.12 L55.74,19.12 L55.74,21.64 C56.2513396,19.931747 57.8816909,18.8088009 59.66,18.94 L59.66,24.46 L59.11,24.46 C56.91,24.46 55.74,25.67 55.74,28.46 L55.74,31.64 L50.55,31.64 L50.55,19.12 Z" id="Shape" fill="#FFFFFF"></path>
            <path d="M69.45,25.42 L69.45,25.37 C69.4716185,24.80233 69.2666392,24.2493584 68.8802315,23.8329384 C68.4938237,23.4165184 67.9576996,23.1708252 67.39,23.15 C66.8336471,23.1680216 66.307998,23.4093546 65.9316891,23.8195313 C65.5553802,24.229708 65.360128,24.7741574 65.39,25.33 C65.3656516,25.896711 65.5683543,26.4497259 65.9531757,26.8664594 C66.3379971,27.2831928 66.873147,27.5292183 67.44,27.55 C67.9945268,27.5319001 68.5185765,27.2919493 68.8945888,26.8839759 C69.2706012,26.4760024 69.4670983,25.93416 69.44,25.38 M60.38,25.38 L60.38,25.33 C60.4266522,23.5295867 61.1940497,21.8232486 62.5100678,20.5937117 C63.8260858,19.3641748 65.5805717,18.7143533 67.38,18.79 C71.48,18.79 74.38,21.79 74.38,25.29 C74.3332826,27.0912569 73.5662112,28.7985541 72.2505137,30.0296711 C70.9348162,31.2607881 69.1803876,31.9128944 67.38,31.84 C65.5829765,31.9323249 63.8250625,31.2935764 62.5064785,30.069177 C61.1878945,28.8447776 60.4208586,27.1389297 60.38,25.34" id="Shape" fill="#FFFFFF"></path>
            <path d="M84.85,25.39 C84.9040067,24.6106359 84.5188403,23.8662179 83.85146,23.4601038 C83.1840797,23.0539896 82.3459203,23.0539896 81.67854,23.4601038 C81.0111597,23.8662179 80.6259933,24.6106359 80.68,25.39 C80.6259933,26.1693641 81.0111597,26.9137821 81.67854,27.3198962 C82.3459203,27.7260104 83.1840797,27.7260104 83.85146,27.3198962 C84.5188403,26.9137821 84.9040067,26.1693641 84.85,25.39 Z M75.6,19.12 L80.8,19.12 L80.8,20.66 C81.6781887,19.4982335 83.0536993,18.8197471 84.51,18.83 C87.51,18.83 89.88,21.46 89.88,25.28 C89.88,29.28 87.5,31.87 84.55,31.87 C83.1089384,31.9235452 81.7242733,31.3069077 80.8,30.2 L80.8,35.28 L75.6,35.28 L75.6,19.12 Z" id="Shape" fill="#FFFFFF"></path>
            <path d="M90.84,23.65 C90.8200266,21.3996665 91.716881,19.2381413 93.3241236,17.662968 C94.9313662,16.0877948 97.110526,15.2346817 99.36,15.3 C102.375397,15.1777823 105.193884,16.7950106 106.61,19.46 L102.19,22 C101.732845,20.7954897 100.578346,19.9992833 99.29,20 C97.48,20 96.29,21.58 96.29,23.5 L96.29,23.55 C96.29,25.63 97.53,27.1 99.29,27.1 C100.598801,27.0894198 101.776849,26.3040547 102.29,25.1 L106.7,27.6 C104.818681,30.9298841 100.943151,32.590792 97.2344081,31.6565999 C93.5256653,30.7224078 90.8993917,27.4237658 90.82,23.6" id="Shape" fill="#FFFFFF"></path>
            <path d="M107.62,19.12 L112.81,19.12 L112.81,21.64 C113.317309,19.9332874 114.944251,18.8098235 116.72,18.94 L116.72,24.46 L116.17,24.46 C113.98,24.46 112.81,25.67 112.81,28.46 L112.81,31.64 L107.62,31.64 L107.62,19.12 Z" id="Shape" fill="#FFFFFF"></path>
            <path d="M126.17,25.42 L126.17,25.37 C126.221243,24.2080706 125.330959,23.2198554 124.17,23.15 C123.614586,23.1707155 123.090566,23.4128568 122.714828,23.8224109 C122.33909,24.2319651 122.142893,24.7748616 122.17,25.33 C122.145671,25.8983858 122.349732,26.452884 122.7367,26.8699086 C123.123669,27.2869332 123.661384,27.531824 124.23,27.55 C124.785464,27.5346195 125.311155,27.2954877 125.687746,26.8868862 C126.064338,26.4782846 126.259885,25.9348722 126.23,25.38 M117.17,25.38 L117.17,25.33 C117.219346,23.5305001 117.987563,21.8257772 119.302967,20.5968146 C120.61837,19.3678521 122.3713,18.7171025 124.17,18.79 C125.967024,18.6976751 127.724938,19.3364236 129.043521,20.560823 C130.362105,21.7852224 131.129141,23.4910703 131.17,25.29 C131.178932,27.7908591 129.852992,30.1065132 127.691651,31.3646778 C125.530309,32.6228424 122.861924,32.6323724 120.691651,31.3896778 C118.521377,30.1469833 117.178932,27.8408591 117.17,25.34" id="Shape" fill="#FFFFFF"></path>
            <polygon id="Shape" fill="#FFFFFF" points="130.54 19.12 135.51 19.12 136.79 24.16 138.3 19.08 142.44 19.08 143.98 24.2 145.3 19.12 150.2 19.12 146.38 31.71 142.03 31.71 140.36 26.36 138.65 31.71 134.32 31.71"></polygon>
            <path d="M158.92,25.39 C158.974007,24.6106359 158.58884,23.8662179 157.92146,23.4601038 C157.25408,23.0539896 156.41592,23.0539896 155.74854,23.4601038 C155.08116,23.8662179 154.695993,24.6106359 154.75,25.39 C154.695993,26.1693641 155.08116,26.9137821 155.74854,27.3198962 C156.41592,27.7260104 157.25408,27.7260104 157.92146,27.3198962 C158.58884,26.9137821 158.974007,26.1693641 158.92,25.39 M149.72,25.46 C149.72,21.46 152.1,18.87 155.05,18.87 C156.497829,18.826206 157.883699,19.4581626 158.8,20.58 L158.8,14.91 L164,14.91 L164,31.62 L158.8,31.62 L158.8,30.09 C157.922891,31.24769 156.552424,31.9255153 155.1,31.92 C152.1,31.92 149.72,29.28 149.72,25.46" id="Shape" fill="#FFFFFF"></path>
        </g>
    </g>
</svg>