<svg xmlns="http://www.w3.org/2000/svg" viewBox="0 0 164 46.98"><defs><style>.cls-1{fill:#00ff4b;}</style></defs><title>Asset 1</title><g id="Layer_2" data-name="Layer 2"><g id="Capa_1" data-name="Capa 1"><path class="cls-1" d="M38.91,9.45c-7.1-14.1-29.12-11-35.65,0C-4.17,22,2.86,47,7,47c4.88,0,.2-15.26,6.64-19.73,6.87-4.77,10.14,5.26,19.7,2.1,6.07-2,9.43-12.29,5.6-19.88M10,17a2.74,2.74,0,1,1,2.73-2.74A2.74,2.74,0,0,1,10,17"/><rect x="84.63" y="37.84" width="0.88" height="6.86"/><path d="M90.5,44.7V41.59c0-.73-.3-1.17-1.07-1.17a1.19,1.19,0,0,0-1.06.76,3.14,3.14,0,0,0-.18,1.25V44.7h-.82V39.81h.72l.06.73a1.67,1.67,0,0,1,1.48-.86,1.58,1.58,0,0,1,1.7,1.8V44.7Z"/><polygon points="94.84 44.7 93.95 44.7 92.15 39.8 93.01 39.8 94.42 43.73 95.78 39.8 96.61 39.8 94.84 44.7"/><path d="M100.38,40.82a1.15,1.15,0,0,0-1-.44,1.36,1.36,0,0,0-1.35,1.44h2.61a1.67,1.67,0,0,0-.3-1m1.14,1.7H98.05a1.8,1.8,0,0,0,.48,1.23,1.23,1.23,0,0,0,.9.35,1.26,1.26,0,0,0,.91-.32,1.11,1.11,0,0,0,.29-.53h.8a1.81,1.81,0,0,1-.76,1.21,2.23,2.23,0,0,1-1.24.36,2.11,2.11,0,0,1-1.63-.73,2.82,2.82,0,0,1-.61-1.82,3,3,0,0,1,.38-1.57,2.1,2.1,0,0,1,1.85-1,2,2,0,0,1,1.49.63,2.54,2.54,0,0,1,.62,1.72Z"/><path d="M106.15,44.27a2.18,2.18,0,0,1-1.6.55,2.14,2.14,0,0,1-1.58-.55,1.58,1.58,0,0,1-.48-1.12h.82a1,1,0,0,0,.4.76,1.51,1.51,0,0,0,.88.23,1.34,1.34,0,0,0,.9-.27.72.72,0,0,0,.24-.54c0-.36-.26-.62-.76-.69l-1.1-.15a1.27,1.27,0,0,1-1.2-1.31,1.41,1.41,0,0,1,.4-1,2,2,0,0,1,1.44-.54,1.94,1.94,0,0,1,1.56.62,1.41,1.41,0,0,1,.35.94h-.82a.9.9,0,0,0-.28-.61,1.15,1.15,0,0,0-.81-.26,1.35,1.35,0,0,0-.57.09.74.74,0,0,0-.49.66c0,.41.25.58.66.64l1.18.16a1.4,1.4,0,0,1,.86,2.35"/><path d="M109.45,44.77a1.2,1.2,0,0,1-1.34-1.33V40.51h-1v-.7h1V38.56l.82-.2v1.45h1.45v.7h-1.45v2.83c0,.48.2.67.66.67a5.78,5.78,0,0,0,.84-.09v.71a3.41,3.41,0,0,1-1,.14"/><path d="M111.62,39.81h.84V44.7h-.84Zm-.06-2.09h1v1h-1Z"/><path d="M117.39,44.7V41.59c0-.73-.3-1.17-1.07-1.17a1.21,1.21,0,0,0-1.07.76,3.32,3.32,0,0,0-.17,1.25V44.7h-.82V39.81H115l.07.73a1.66,1.66,0,0,1,1.48-.86,1.58,1.58,0,0,1,1.69,1.8V44.7Z"/><path d="M121.62,40.35a1.08,1.08,0,1,0,0,2.16,1.06,1.06,0,0,0,1.11-1.09,1,1,0,0,0-1.11-1.07m.13,4.3h-.89a.85.85,0,0,0-.62.77.69.69,0,0,0,.21.52,1.88,1.88,0,0,0,1.3.33,2,2,0,0,0,1.33-.34.68.68,0,0,0,.21-.51c0-.83-.92-.77-1.54-.77m1.92,1.76a2.88,2.88,0,0,1-2,.57,2.58,2.58,0,0,1-1.85-.57,1.15,1.15,0,0,1-.35-.87,1.2,1.2,0,0,1,.69-1.08.91.91,0,0,1-.57-.83,1,1,0,0,1,.65-.94,1.74,1.74,0,0,1-.56-1.27,1.62,1.62,0,0,1,.46-1.19,1.92,1.92,0,0,1,1.45-.55,2.12,2.12,0,0,1,1.13.29,1,1,0,0,1,1-.69l.24,0V40h-.18a.56.56,0,0,0-.6.44,1.63,1.63,0,0,1,.32,1,1.7,1.7,0,0,1-.45,1.17,1.9,1.9,0,0,1-1.46.58,2.31,2.31,0,0,1-.82-.13.54.54,0,0,0-.41.43c0,.43.42.47.73.48h1a2.24,2.24,0,0,1,1.61.52,1.28,1.28,0,0,1,.39,1,1.34,1.34,0,0,1-.42,1"/><path d="M128.72,44.77a1.2,1.2,0,0,1-1.34-1.33V40.51h-.95v-.7h.95V38.56l.82-.2v1.45h1.45v.7H128.2v2.83c0,.48.2.67.66.67a6,6,0,0,0,.84-.09v.71a3.41,3.41,0,0,1-1,.14"/><path d="M133.47,40.73a1.24,1.24,0,0,0-.88-.34,1.2,1.2,0,0,0-.88.34,2.74,2.74,0,0,0,0,3,1.21,1.21,0,0,0,.88.35,1.24,1.24,0,0,0,.88-.35,2.79,2.79,0,0,0,0-3m.6,3.52a2.21,2.21,0,0,1-3,0,3.21,3.21,0,0,1,0-4,2.21,2.21,0,0,1,3,0,3.24,3.24,0,0,1,0,4"/><path d="M137.89,40.35a1.08,1.08,0,1,0,0,2.16A1.06,1.06,0,0,0,139,41.42a1,1,0,0,0-1.11-1.07m.13,4.3h-.89a.85.85,0,0,0-.62.77.69.69,0,0,0,.21.52,1.91,1.91,0,0,0,1.3.33,2,2,0,0,0,1.34-.34.72.72,0,0,0,.2-.51c0-.83-.92-.77-1.54-.77M140,46.41a2.92,2.92,0,0,1-2,.57,2.6,2.6,0,0,1-1.85-.57,1.15,1.15,0,0,1-.35-.87,1.2,1.2,0,0,1,.69-1.08.91.91,0,0,1-.57-.83,1,1,0,0,1,.65-.94,1.74,1.74,0,0,1-.56-1.27,1.62,1.62,0,0,1,.47-1.19,1.89,1.89,0,0,1,1.45-.55A2.11,2.11,0,0,1,139,40a1,1,0,0,1,1-.69l.24,0V40h-.18a.56.56,0,0,0-.6.44,1.63,1.63,0,0,1,.32,1,1.74,1.74,0,0,1-.44,1.17,1.93,1.93,0,0,1-1.46.58,2.33,2.33,0,0,1-.83-.13.54.54,0,0,0-.41.43c0,.43.42.47.73.48h1a2.24,2.24,0,0,1,1.61.52,1.28,1.28,0,0,1,.39,1,1.37,1.37,0,0,1-.41,1"/><path d="M144.16,40.82a1.16,1.16,0,0,0-1-.44,1.35,1.35,0,0,0-1.34,1.44h2.61a1.74,1.74,0,0,0-.3-1m1.13,1.7h-3.46a1.79,1.79,0,0,0,.47,1.23,1.26,1.26,0,0,0,.9.35,1.23,1.23,0,0,0,.91-.32,1,1,0,0,0,.29-.53h.8a1.77,1.77,0,0,1-.75,1.21,2.26,2.26,0,0,1-1.25.36,2.1,2.1,0,0,1-1.62-.73,2.76,2.76,0,0,1-.61-1.82,3,3,0,0,1,.38-1.57,2.07,2.07,0,0,1,1.84-1,2,2,0,0,1,1.49.63A2.49,2.49,0,0,1,145.3,42Z"/><path d="M148.19,44.77a1.2,1.2,0,0,1-1.34-1.33V40.51h-.95v-.7h.95V38.56l.82-.2v1.45h1.45v.7h-1.45v2.83c0,.48.2.67.66.67a5.78,5.78,0,0,0,.84-.09v.71a3.41,3.41,0,0,1-1,.14"/><path d="M153.49,44.7V41.59c0-.73-.3-1.17-1.07-1.17a1.21,1.21,0,0,0-1.07.76,3.32,3.32,0,0,0-.17,1.25V44.7h-.82v-7h.82v2.73a1.67,1.67,0,0,1,1.43-.77,1.59,1.59,0,0,1,1.7,1.8V44.7Z"/><path d="M158.84,40.82a1.18,1.18,0,0,0-1-.44,1.35,1.35,0,0,0-1.34,1.44h2.61a1.74,1.74,0,0,0-.3-1m1.13,1.7h-3.46a1.79,1.79,0,0,0,.47,1.23,1.23,1.23,0,0,0,.9.35,1.24,1.24,0,0,0,.91-.32,1.11,1.11,0,0,0,.29-.53h.8a1.84,1.84,0,0,1-.75,1.21,2.29,2.29,0,0,1-1.25.36,2.11,2.11,0,0,1-1.63-.73,2.81,2.81,0,0,1-.6-1.82A3,3,0,0,1,156,40.7a2.1,2.1,0,0,1,1.85-1,2,2,0,0,1,1.49.63A2.49,2.49,0,0,1,160,42Z"/><path d="M163.54,40.57a1.3,1.3,0,0,0-.92.39,2.16,2.16,0,0,0-.45,1.56V44.7h-.81V39.81h.72l.07.86a1.51,1.51,0,0,1,1.46-.89,2.56,2.56,0,0,1,.39,0v.8a2.38,2.38,0,0,0-.46,0"/><path d="M42,23.45c1.37,0,2.28-.62,2.28-1.76v-.05c0-1.17-.84-1.76-2.26-1.76H40.53v3.57Zm-6.8-7.85h7.21c4.25,0,7.16,1.9,7.16,5.7v0c0,3.87-2.95,5.93-7.28,5.93H40.53v4.35H35.17Z"/><path d="M50.55,19.12h5.19v2.52a3.8,3.8,0,0,1,3.92-2.7v5.52h-.55c-2.2,0-3.37,1.21-3.37,4v3.18H50.55Z"/><path d="M69.45,25.42v-.05a2.14,2.14,0,0,0-2.06-2.22,2.07,2.07,0,0,0-2,2.18v0a2.13,2.13,0,0,0,2.05,2.22,2.07,2.07,0,0,0,2-2.17m-9.06,0v-.05a6.72,6.72,0,0,1,7-6.54c4.1,0,7,3,7,6.5v0a6.73,6.73,0,0,1-7,6.55,6.66,6.66,0,0,1-7-6.5"/><path d="M84.85,25.39v0a2.09,2.09,0,1,0-4.17,0v0a2.09,2.09,0,1,0,4.17,0M75.6,19.12h5.2v1.54a4.61,4.61,0,0,1,3.71-1.83c3,0,5.37,2.63,5.37,6.45v0c0,4-2.38,6.59-5.33,6.59A4.66,4.66,0,0,1,80.8,30.2v5.08H75.6Z"/><path d="M90.84,23.65v0a8.28,8.28,0,0,1,8.52-8.35,7.85,7.85,0,0,1,7.25,4.16L102.19,22a3.1,3.1,0,0,0-2.9-2c-1.81,0-3,1.58-3,3.5v.05c0,2.08,1.24,3.55,3,3.55a3.29,3.29,0,0,0,3-2l4.41,2.5a8.49,8.49,0,0,1-15.88-4"/><path d="M107.62,19.12h5.19v2.52a3.79,3.79,0,0,1,3.91-2.7v5.52h-.55c-2.19,0-3.36,1.21-3.36,4v3.18h-5.19Z"/><path d="M126.17,25.42v-.05a2.13,2.13,0,0,0-2-2.22,2.08,2.08,0,0,0-2,2.18v0a2.13,2.13,0,0,0,2.06,2.22,2.06,2.06,0,0,0,2-2.17m-9.06,0v-.05a6.73,6.73,0,0,1,7-6.54,6.66,6.66,0,0,1,7,6.5v0a7,7,0,0,1-14,.05"/><polygon points="130.54 19.12 135.51 19.12 136.79 24.16 138.3 19.08 142.44 19.08 143.98 24.2 145.3 19.12 150.2 19.12 146.38 31.71 142.03 31.71 140.36 26.36 138.65 31.71 134.32 31.71 130.54 19.12"/><path d="M158.92,25.39v0a2.09,2.09,0,1,0-4.17,0v0a2.09,2.09,0,1,0,4.17,0m-9.2.07v0c0-4,2.38-6.59,5.33-6.59a4.66,4.66,0,0,1,3.75,1.71V14.91H164V31.62h-5.2V30.09a4.62,4.62,0,0,1-3.7,1.83c-3,0-5.38-2.64-5.38-6.46"/></g></g></svg>