<?xml version="1.0" encoding="UTF-8"?>
<svg width="41px" height="47px" viewBox="0 0 41 47" version="1.1" xmlns="http://www.w3.org/2000/svg" xmlns:xlink="http://www.w3.org/1999/xlink">
    <!-- Generator: Sketch 51.1 (57501) - http://www.bohemiancoding.com/sketch -->
    <title>Shape</title>
    <desc>Created with Sketch.</desc>
    <defs></defs>
    <g id="Page-1" stroke="none" stroke-width="1" fill="none" fill-rule="evenodd">
        <path d="M38.9094045,9.44812476 C31.8094045,-4.65187524 9.78940452,-1.55187524 3.25940452,9.44812476 C-4.17059548,21.9981248 2.85940452,46.9981248 6.99940452,46.9981248 C11.8794045,46.9981248 7.19940452,31.7381248 13.6394045,27.2681248 C20.5094045,22.4981248 23.7794045,32.5281248 33.3394045,29.3681248 C39.4094045,27.3681248 42.7694045,17.0781248 38.9394045,9.48812476 M9.99940452,16.9981248 C8.89027693,17.0021727 7.88810851,16.3371657 7.46085597,15.313625 C7.03360342,14.2900843 7.26555141,13.109925 8.04839318,12.3242157 C8.83123495,11.5385063 10.0105383,11.3022449 11.0356343,11.7257522 C12.0607304,12.1492595 12.7293971,13.1489898 12.7294045,14.2581248 C12.7294146,15.7674883 11.508758,16.9926161 9.99940452,16.9981248" id="Shape" fill="#00FF4B" fill-rule="nonzero"></path>
    </g>
</svg>