<svg xmlns="http://www.w3.org/2000/svg" viewBox="0 0 123.29 123.29"><defs><style>.cls-1{fill:#fff;}</style></defs><title>Asset 1</title><g id="Layer_2" data-name="Layer 2"><g id="Capa_1" data-name="Capa 1"><path class="cls-1" d="M48.8,87.94a2.52,2.52,0,0,1-1.22-.31,2.55,2.55,0,0,1-1.35-2.26V37.92a2.57,2.57,0,0,1,4-2.14l36,23.73a2.55,2.55,0,0,1,0,4.28l-36,23.73a2.53,2.53,0,0,1-1.41.42Z"/><path class="cls-1" d="M61.64,5.14a56.51,56.51,0,1,1-56.5,56.5A56.57,56.57,0,0,1,61.64,5.14Zm0-5.14a61.65,61.65,0,1,0,61.65,61.64A61.64,61.64,0,0,0,61.64,0Z"/></g></g></svg>