<?xml version="1.0" encoding="UTF-8"?>
<svg width="4454px" height="560px" viewBox="0 0 4454 560" version="1.1" xmlns="http://www.w3.org/2000/svg" xmlns:xlink="http://www.w3.org/1999/xlink">
    <!-- Generator: Sketch 51.1 (57501) - http://www.bohemiancoding.com/sketch -->
    <title>Group</title>
    <desc>Created with Sketch.</desc>
    <defs></defs>
    <g id="Page-1" stroke="none" stroke-width="1" fill="none" fill-rule="evenodd">
        <g id="Group" fill-rule="nonzero">
            <path d="M4453.95246,265.02016 C4453.95246,268.618294 2969.30164,268.618294 9.09494702e-13,265.02016 L0,0 L3067.31101,1.12843835e-13 C3333.81906,1.12843835e-13 3437.12109,26.2453398 3655.3125,129.008892 C3771.55371,183.75605 3935.80623,254.643127 4163.66498,258.839058 C4299.69982,261.344088 4380.47716,264.613349 4453.95246,265.02016 Z" id="Rectangle-Copy-Copy" fill="#FFFFFF"></path>
            <path d="M2837.74535,-2.27373675e-13 L3067.31101,-2.27373675e-13 C3333.81906,-2.27373675e-13 3437.12109,26.2453398 3655.3125,129.008892 C3705.68203,152.731879 3765.06643,179.485385 3834.73453,202.530081 C3834.61296,202.751095 3834.49052,202.971534 3834.36719,203.191406 C3785.45613,290.390042 3664.19797,446.636546 3520.28516,522.96875 C3444.36498,563.237261 3349.84207,566.003416 3262.87792,550.56182 C2890.47668,484.437221 2787.53489,171.59165 2837.74541,-9.58372539e-07 L2837.74535,-2.27373675e-13 Z" id="Combined-Shape" fill="#F2F2F2"></path>
        </g>
    </g>
</svg>